<svg width="111" height="61" viewBox="0 0 111 61" fill="none" xmlns="http://www.w3.org/2000/svg">
<mask id="mask0_203_52" style="mask-type:luminance" maskUnits="userSpaceOnUse" x="0" y="0" width="111" height="61">
<path d="M110.29 0H0.130005V60.17H110.29V0Z" fill="white"/>
</mask>
<g mask="url(#mask0_203_52)">
<path d="M68.1204 0.969971V22.4L46.2404 53.58L46.2304 53.59L42.8204 58.45V37.01L68.1204 0.969971Z" fill="url(#paint0_linear_203_52)"/>
<path d="M109.83 0.640137V60.0601H84.5304V36.6801L109.83 0.640137Z" fill="url(#paint1_linear_203_52)"/>
<path d="M68.81 0L65.52 2.87999L65.51 2.89C65.4767 2.91267 65.4464 2.93956 65.42 2.97H65.41L2.19998 58.36H2.19098C2.16098 58.389 2.14098 58.409 2.13098 58.409V58.42C2.11683 58.4289 2.10345 58.4389 2.09098 58.45L0.130981 60.17L5.17098 53C5.19098 52.96 5.22098 52.93 5.24098 52.89L42.371 0H68.81Z" fill="url(#paint2_linear_203_52)"/>
<path d="M68.81 0L68.12 0.970001L42.82 37.01L26.57 60.17H0.130005L2.19 58.36H2.2L65.41 2.97L68.12 0.599991L68.81 0Z" fill="url(#paint3_linear_203_52)"/>
<path d="M110.291 0L109.831 0.399994L105.751 3.981L105.741 3.991L105.701 4.01999C105.691 4.04099 105.681 4.04099 105.671 4.05099C105.661 4.061 105.661 4.06099 105.651 4.06099V4.071L105.571 4.131C105.536 4.15424 105.502 4.18105 105.471 4.211L84.5314 22.561L68.1214 36.941L44.9814 57.201L44.9014 57.281C44.8738 57.3102 44.8437 57.337 44.8114 57.361L42.8214 59.101L41.6114 60.171L42.8214 58.451L46.2314 53.591L46.2414 53.581L68.1214 22.4L83.8514 0H110.291Z" fill="url(#paint4_linear_203_52)"/>
<path d="M110.291 0L109.831 0.639999L84.5315 36.68L68.1215 60.06L68.0515 60.17H41.6105L42.8205 59.1L44.9805 57.2L68.1205 36.94L84.5305 22.56L105.47 4.20999L105.57 4.12999L105.58 4.12L105.65 4.06999V4.06C105.66 4.06 105.66 4.05 105.67 4.05L109.83 0.399002L110.291 0Z" fill="url(#paint5_linear_203_52)"/>
<g style="mix-blend-mode:multiply" opacity="0.24">
<path d="M68.1204 0.969971V20.02L42.8204 39.08V37.01L68.1204 0.969971Z" fill="black"/>
</g>
<g style="mix-blend-mode:multiply" opacity="0.24">
<path d="M109.83 0.640137V19.4701L109.68 19.5801L84.5304 38.5301V36.6801L109.83 0.640137Z" fill="black"/>
</g>
<g style="mix-blend-mode:overlay">
<path d="M65.4096 2.96997L2.19958 58.36C2.18958 58.37 2.18958 58.36 2.18958 58.36C2.46958 58.08 3.34957 57.24 4.70957 55.95C6.39957 54.38 8.77957 52.09 11.6996 49.43C14.6196 46.77 18.0096 43.63 21.6896 40.34C25.3696 37.029 29.3196 33.55 33.2796 30.06C35.2596 28.33 37.2496 26.6 39.2096 24.899C41.1696 23.198 43.1096 21.54 44.9796 19.93C48.7296 16.71 52.2896 13.779 55.3096 11.22C58.3296 8.66097 60.9096 6.61997 62.6896 5.14897L65.4096 2.96997Z" fill="white"/>
</g>
<g style="mix-blend-mode:overlay">
<path d="M103.03 6.14897C104.22 5.19897 105.06 4.52896 105.47 4.20996L84.5296 22.56L68.1196 36.94L44.9796 57.2C45.3096 56.88 46.1296 56.1 47.3296 54.949C48.9496 53.44 51.2296 51.24 54.0396 48.68C56.8496 46.12 60.0896 43.11 63.6296 39.94C67.1696 36.77 70.9596 33.42 74.7496 30.07C76.6596 28.399 78.5696 26.74 80.4496 25.11C82.3296 23.48 84.1996 21.88 85.9996 20.34C89.5996 17.25 93.0296 14.43 95.9296 11.98C98.8296 9.52997 101.32 7.55997 103.03 6.14897Z" fill="white"/>
</g>
<g style="mix-blend-mode:screen" opacity="0.4">
<path d="M105.67 4.05005C105.67 4.06005 105.66 4.06004 105.65 4.07004L105.57 4.13004C105.595 4.10393 105.621 4.08047 105.65 4.06004C105.66 4.06004 105.66 4.05005 105.67 4.05005Z" fill="white"/>
</g>
<g style="mix-blend-mode:multiply" opacity="0.25">
<path d="M68.81 0C68.58 0.36 68.35 0.709998 68.12 1.06C66.68 3.279 65.22 5.48 63.77 7.69C62.09 10.25 60.37 12.79 58.65 15.33C55.23 20.4087 51.78 25.4687 48.3 30.51L43.05 38.06L42.82 38.39V37.01L26.57 60.17H0.130005C4.53 59.98 8.94001 59.899 13.35 59.76L26.22 59.54C27.88 57.09 29.57 54.659 31.24 52.22L36.48 44.68L41.76 37.149L47.07 29.649C50.62 24.659 54.21 19.6923 57.84 14.749C59.64 12.278 61.44 9.799 63.28 7.349C65.12 4.899 66.94 2.433 68.81 0Z" fill="black"/>
</g>
<g style="mix-blend-mode:multiply" opacity="0.25">
<path d="M110.291 0C110.141 0.24 109.991 0.479991 109.831 0.709991C108.331 3.04999 106.781 5.37 105.251 7.69C103.581 10.25 101.851 12.79 100.141 15.33C96.7215 20.4087 93.2681 25.4687 89.7815 30.51L84.5315 38.06V36.68L68.1215 60.06L68.0515 60.17H41.6105C46.0205 59.98 50.4205 59.899 54.8305 59.76L67.7105 59.54C69.3605 57.09 71.0505 54.659 72.7205 52.22L77.9705 44.68L83.2405 37.149L88.5505 29.649C92.1005 24.659 95.6905 19.6923 99.3205 14.749C101.12 12.278 102.92 9.799 104.77 7.349C106.6 4.89 108.42 2.433 110.291 0Z" fill="black"/>
</g>
<g style="mix-blend-mode:multiply" opacity="0.25">
<path d="M109.83 16.8701V60.0601H84.5304C86.6404 59.9301 88.7504 59.8501 90.8604 59.7601C92.9704 59.6701 95.0704 59.6101 97.1804 59.5401C101.15 59.4301 105.11 59.3701 109.08 59.3201C109.05 55.9691 109.03 52.6201 109.04 49.2601C109.05 45.6601 109.07 42.0601 109.13 38.4601C109.19 34.8601 109.25 31.2691 109.37 27.6701C109.41 25.8701 109.49 24.0701 109.57 22.2701C109.6 21.3701 109.64 20.4811 109.68 19.5811C109.72 18.6811 109.77 17.7691 109.83 16.8701Z" fill="black"/>
</g>
<g style="mix-blend-mode:overlay">
<path d="M102.491 3.05171e-05C99.3813 0.159031 96.2713 0.230021 93.1713 0.350021C90.1613 0.450021 87.1613 0.490028 84.1613 0.560028C82.6913 2.75003 81.2313 4.94002 79.7313 7.10002L75.0813 13.84L70.3913 20.55L65.6713 27.24L60.8913 33.89L56.0613 40.49C54.4413 42.69 52.8413 44.899 51.1913 47.07C49.5413 49.241 47.9213 51.43 46.2413 53.58L68.1213 22.399L83.8513 -0.000976562L102.491 3.05171e-05Z" fill="white"/>
</g>
<g style="mix-blend-mode:overlay">
<path d="M64.491 0C60.801 0.18 57.111 0.259994 53.431 0.399994L42.711 0.621002C41.261 2.77 39.781 4.89999 38.321 7.05099L33.711 13.7L29.061 20.331L24.381 26.931L19.661 33.501L14.881 40.03C13.281 42.211 11.701 44.391 10.061 46.541C8.44102 48.7 6.82102 50.861 5.17102 53.001C5.19102 52.961 5.22102 52.931 5.24102 52.891L42.371 0.000991821L64.491 0Z" fill="white"/>
</g>
</g>
<defs>
<linearGradient id="paint0_linear_203_52" x1="55.4704" y1="50.1728" x2="55.4704" y2="18.4439" gradientUnits="userSpaceOnUse">
<stop stop-color="#F58033"/>
<stop offset="1" stop-color="#A53826"/>
</linearGradient>
<linearGradient id="paint1_linear_203_52" x1="97.1804" y1="59.5254" x2="97.1804" y2="17.8125" gradientUnits="userSpaceOnUse">
<stop stop-color="#00F3FF"/>
<stop offset="0.238" stop-color="#00EFFC"/>
<stop offset="0.44" stop-color="#00E5F4"/>
<stop offset="0.629" stop-color="#00D3E7"/>
<stop offset="0.81" stop-color="#00BAD4"/>
<stop offset="0.983" stop-color="#009BBC"/>
<stop offset="1" stop-color="#0098BA"/>
</linearGradient>
<linearGradient id="paint2_linear_203_52" x1="27.0531" y1="26.535" x2="58.2982" y2="-11.3576" gradientUnits="userSpaceOnUse">
<stop stop-color="#F804DE"/>
<stop offset="0.074" stop-color="#F803CC"/>
<stop offset="0.293" stop-color="#F9029D"/>
<stop offset="0.501" stop-color="#FA0178"/>
<stop offset="0.695" stop-color="#FB005D"/>
<stop offset="0.867" stop-color="#FB004D"/>
<stop offset="1" stop-color="#FC0048"/>
</linearGradient>
<linearGradient id="paint3_linear_203_52" x1="0.130005" y1="30.085" x2="68.81" y2="30.085" gradientUnits="userSpaceOnUse">
<stop stop-color="#F804DE"/>
<stop offset="0.074" stop-color="#F803CC"/>
<stop offset="0.293" stop-color="#F9029D"/>
<stop offset="0.501" stop-color="#FA0178"/>
<stop offset="0.695" stop-color="#FB005D"/>
<stop offset="0.867" stop-color="#FB004D"/>
<stop offset="1" stop-color="#FC0048"/>
</linearGradient>
<linearGradient id="paint4_linear_203_52" x1="75.402" y1="25.8735" x2="102.375" y2="-16.05" gradientUnits="userSpaceOnUse">
<stop stop-color="#FCFC53"/>
<stop offset="1" stop-color="#F8A700"/>
</linearGradient>
<linearGradient id="paint5_linear_203_52" x1="41.6105" y1="30.085" x2="110.291" y2="30.085" gradientUnits="userSpaceOnUse">
<stop stop-color="#FCFC53"/>
<stop offset="1" stop-color="#F8A700"/>
</linearGradient>
</defs>
</svg>
